<svg xmlns="http://www.w3.org/2000/svg" xmlns:xlink="http://www.w3.org/1999/xlink" width="282" zoomAndPan="magnify" viewBox="0 0 211.5 89.999999" height="120" preserveAspectRatio="xMidYMid meet" version="1.0"><defs><clipPath id="58c9f6cd49"><path d="M 0 50 L 37 50 L 37 84.292969 L 0 84.292969 Z M 0 50 " clip-rule="nonzero"/></clipPath><clipPath id="f120adf454"><path d="M 72 50 L 110 50 L 110 84.292969 L 72 84.292969 Z M 72 50 " clip-rule="nonzero"/></clipPath><clipPath id="8f1ae08d86"><path d="M 114 49.125 L 175 49.125 L 175 84.292969 L 114 84.292969 Z M 114 49.125 " clip-rule="nonzero"/></clipPath><clipPath id="bfd9442a97"><path d="M 180 50 L 211 50 L 211 84.292969 L 180 84.292969 Z M 180 50 " clip-rule="nonzero"/></clipPath><clipPath id="cfe0091ef9"><path d="M 41 50 L 71 50 L 71 84.292969 L 41 84.292969 Z M 41 50 " clip-rule="nonzero"/></clipPath></defs><g clip-path="url(#58c9f6cd49)"><path fill="#eb1c2d" d="M 5.992188 66.742188 L 5.980469 52.894531 L 18.453125 52.894531 C 23.617188 52.894531 25.957031 56.292969 25.957031 59.597656 C 25.957031 63.472656 22.964844 66.742188 17.671875 66.742188 M 22.515625 68.53125 C 25.292969 68.394531 31.933594 65.792969 31.933594 59.597656 C 31.933594 54.226562 26.257812 50.625 19.105469 50.625 L 0 50.625 L 0 84.0625 L 5.992188 84.0625 L 5.992188 69.082031 L 15.835938 69.082031 L 28.917969 84.0625 L 36.660156 84.0625 Z M 22.515625 68.53125 " fill-opacity="1" fill-rule="nonzero"/></g><g clip-path="url(#f120adf454)"><path fill="#eb1c2d" d="M 106.300781 50.625 L 93.175781 77.007812 L 79.316406 50.625 L 72.53125 50.625 L 90.429688 84.0625 L 92.335938 84.0625 L 109.261719 50.625 " fill-opacity="1" fill-rule="nonzero"/></g><g clip-path="url(#8f1ae08d86)"><path fill="#eb1c2d" d="M 153.757812 49.167969 C 142.960938 49.167969 132.46875 56.878906 132.46875 66.402344 C 132.46875 76.429688 142.199219 80.542969 147.265625 80.5 C 145.851562 79.476562 144.460938 78.660156 143.199219 77.246094 C 141.03125 74.785156 139.09375 71.832031 139.09375 66.402344 C 139.09375 57.703125 145.644531 51.484375 153.757812 51.484375 C 161.851562 51.484375 168.246094 58.101562 168.246094 66.402344 C 168.246094 74.699219 163 81.777344 154.898438 81.777344 L 120.105469 81.777344 L 120.132812 50.625 L 114.257812 50.625 L 114.257812 84.066406 L 154.902344 84.066406 C 165.027344 84.066406 174.855469 75.914062 174.855469 66.402344 C 174.855469 56.878906 164.601562 49.167969 153.757812 49.167969 " fill-opacity="1" fill-rule="nonzero"/></g><g clip-path="url(#bfd9442a97)"><path fill="#eb1c2d" d="M 180.25 84.246094 L 182.820312 84.238281 L 182.8125 56.914062 L 209.335938 84.0625 L 211 84.0625 L 211 50.625 L 208.480469 50.625 L 208.480469 74.441406 L 185.203125 50.625 L 180.25 50.617188 " fill-opacity="1" fill-rule="nonzero"/></g><g clip-path="url(#cfe0091ef9)"><path fill="#eb1c2d" d="M 47.738281 81.59375 L 47.738281 68.578125 L 62.265625 68.578125 L 62.265625 66.109375 L 47.738281 66.109375 L 47.738281 53.089844 L 68.640625 53.089844 L 67.347656 50.617188 L 41.867188 50.617188 L 41.867188 51.039062 L 41.851562 51.039062 L 41.851562 84.058594 L 47.066406 84.058594 L 47.066406 84.0625 L 69.601562 84.0625 L 70.894531 81.59375 " fill-opacity="1" fill-rule="nonzero"/></g></svg>