<svg id="Ebene_2" data-name="Ebene 2" xmlns="http://www.w3.org/2000/svg" viewBox="0 0 282.49997 120.34374">
  <title>Schwarzkopf</title>
  <path d="M161.1,29.04375c.1-2.4-.1-4.9.8-7a13.19611,13.19611,0,0,0-.5-7.1,12.45018,12.45018,0,0,0-3-7.6c-1.7-2.4-4.6-2.8-6.8-4.5-2-1.8-4.8-2-7.5-1.9a26.305,26.305,0,0,1-4.9-.7,12.88536,12.88536,0,0,0-7.3.8,17.93633,17.93633,0,0,0-5.2,1.2c-2,1.1-4.4,1.7-5.8,3.8-1.1,1.3-2.5,2.4-2.8,4.1a5.681,5.681,0,0,0,1.9,5.6c.5.6,1.5.6,1.7,1.4a24.67763,24.67763,0,0,1-1.4,4.1c-.9,1.6,1.4,2.4.6,4.1l-3.3,5.8a5.77241,5.77241,0,0,0-.9,2.6c.4,1.6,2.3,1,3.3,2,.7.9-.4,1.6-.4,2.4-.2.7.9,1,.4,1.7-.6,1,.5,1.8.8,2.7.1,1.3-.7,2.7.3,3.8,2.5,1.8,6.4.4,9,1.7,1.4,1,1.1,2.8,1.1,4.3-.7,6.3-3.8,11.7-7.7,16.7a2.337,2.337,0,0,0-.5,2.1,2.76047,2.76047,0,0,0,2,0c7.2-2.5,12.8-8.7,19.8-11.6,2.7-1.3,5.8-1.8,8.7-2.4.7-.6.3-1.6.1-2.3-1.4-3.8-3.1-7.7-2.8-12.1,0-1.6,1.8-2,2.9-2.6,1.9-.5,3.1-2.4,3.9-4,1.4-2.5,3.2-4.5,3.5-7.1Zm-116.9,74.1a20.4029,20.4029,0,0,1-4.9.5c-3.3,0-5.1-.8-6.8-3a12.40645,12.40645,0,0,1-2.4-7.7c0-6.3,3.6-10.9,8.5-10.9h1.1l2.2,4.8H45v-5.6a19.2729,19.2729,0,0,0-6.2-1.2c-8.1,0-13.5,5.6-13.5,14,0,7.4,4.3,12.6,10.5,12.6a21.37594,21.37594,0,0,0,6.2-1.1l2.5-.8.5-.2-.3-1.7-.5.3Zm27-14.8c0-5.2-2.7-8.5-6.9-8.5-1.7,0-4.1.8-7.8,2.6l-.7.3v-17.8l-8.9,2.2v1.2l4.1,1.4v33.4l-3.8,1.9v1.4H59.7v-1.4l-3.8-1.9v-19a20.231,20.231,0,0,1,4.6-.7c4.3,0,6,1.8,6,6.2v13.5l-3.8,1.9v1.4H75.4v-1.4l-4-1.9v-14.8Zm31.5-6.5,3.7,1.8-5.3,16.2v-.2a13.94728,13.94728,0,0,0-.9-2.7l-5-16.3H93.3l-6.7,19.6-.2-.8-.4-1.7-.4-1.5-4.2-13.1,3.6-1.3v-1.4H73.3v1.4l2.9,1.5,8.1,23.5h2.4l6.3-18.2,5.7,18.2h2.2l8.7-23.3,2.9-1.8v-1.4h-10v1.5Zm28.4,19.1v-14.4c0-4.3-2.4-6.4-7.3-6.4a26.87943,26.87943,0,0,0-8.7,1.9v4.9h3l2.1-4.5a6.151,6.151,0,0,1,1.3-.1c3.8,0,5,1.1,5,4.4v5.8a55.55087,55.55087,0,0,0-8.4,1.3c-3.4.8-5.3,2.9-5.3,6.2,0,3.8,2.8,6.6,6.9,6.6a5.74833,5.74833,0,0,0,2.4-.4l2.3-1,1.7-.9.6-.3c.3,1.8,1.2,2.6,2.7,2.6h.2a11.21148,11.21148,0,0,0,2.1-.4l3.6-1.3v-1.1l-2.8-.8c-1.3-.6-1.4-.8-1.4-2.1Zm-4.5,2-.4.1a6.63126,6.63126,0,0,1-1.6.4,6.15383,6.15383,0,0,1-1.9.2c-3,0-4.8-1.7-4.8-4.3,0-2.2,1.1-3.5,3.5-4.1a31.00419,31.00419,0,0,1,5.3-1v8.7Zm19.5-20-.3.2v-3.4l-8.8,2.3v1.3l3.9,1.3v18.5l-3.9,1.9v1.4h13.9v-1.4l-5.1-1.9v-18.6a9.79047,9.79047,0,0,1,3.6-.8h1.3l1.5,3.2h3.4v-6a4.62657,4.62657,0,0,0-2.5-.8c-1.4,0-3.7,1-7,2.8Zm12.5,4.8h1.7l2.5-4.9h8.7l-14,21.7v1.8h19.9v-8.1h-1.6l-2.8,5.6h-9.6l14.1-21.7v-1.7H158.7v7.3Zm35.7,3,7-7.3,4.9-1.7v-1.3H194.6v1.3l3.3,1.4-8.9,9.2,10.4,14h7.5v-1.4l-3.6-1.6-9-12.6Zm-5.5-25.8-9.1,2.2v1.2l4.3,1.4v33.4l-4.1,1.9v1.4h13v-1.4l-4.1-1.9v-38.2Zm88.6,1.5c-6.9,0-11.6,4.1-11.6,10.3v3.7h-4v2.4h3.9v20.2l-3.9,1.9v1.4h14v-1.4l-5.1-1.9v-20.2H278v-2.4h-7.3v-4.5c0-2.9.5-4.8,1.9-5.9a7.67263,7.67263,0,0,1,4.5-1.6l.7.1,1.4,3.3h3.3v-4.6a12.70566,12.70566,0,0,0-5.1-.8Zm-57.3,13.5c-7.1,0-12.8,5.7-12.8,14.1,0,7.7,5.4,13.1,12.1,13.1,7.1,0,12.9-5.9,12.9-14.1,0-7.8-5.4-13.1-12.2-13.1Zm0,24.8c-4.4,0-7-4.3-7-11.5,0-6.9,2.4-10.8,6.5-10.8,4.4,0,7,4.4,7,11.9-.1,6.5-2.4,10.4-6.5,10.4ZM15,86.24375l-5.4-3.9c-3.6-2.5-5.3-3.7-5.3-6.3,0-3.8,3.4-5.6,8.5-5.6.9,0,1.3.1,2.6.2l.4.1,2.5,7h1.9v-8.2l-.8-.2-2.1-.5a13.08734,13.08734,0,0,0-2.7-.5,32.81945,32.81945,0,0,0-3.9-.3c-5.9-.2-10.7,3.9-10.7,9.9a8.31646,8.31646,0,0,0,1.3,4.7c.9,1.7,2.4,2.6,5.1,4.5l5.6,3.7c3.6,2.6,5.1,4.1,5.1,7,0,4-3.4,6.2-8.3,6.2a23.40092,23.40092,0,0,1-3.8-.3l-2.5-7.1H.6v8.5l.5.2,2.9.8a25.7784,25.7784,0,0,0,6.3.9c6.7,0,11.9-4.1,11.9-10.5a10.29207,10.29207,0,0,0-1.7-5.6c-1.1-1.8-2.2-2.3-5.5-4.7Zm234.8-6.1c-1.5,0-4.5,1.1-7.4,2.8v-3.3l-8.9,2.2v1.2l4,1.4v32.8l-4,1.7v1.4h14v-1.5l-4.9-1.7v-11a7.88516,7.88516,0,0,0,2.8.4,14.34349,14.34349,0,0,0,14.6-14.5c0-6.7-4.9-11.9-10.2-11.9Zm-4,24c-1,0-2.2-.1-3.3-.2v-19.7a13.60231,13.60231,0,0,1,4.7-.8c4.8,0,8,4.1,8,10.2.1,6.6-3.4,10.5-9.4,10.5Z"/>
</svg>
